<svg width="489" height="144" viewBox="0 0 489 144" fill="none" xmlns="http://www.w3.org/2000/svg">
<path d="M472.932 60.9514C470.743 60.9514 468.67 60.5322 466.714 59.6939C464.804 58.8555 463.104 57.6912 461.614 56.2007C460.124 54.7103 458.959 53.0104 458.121 51.1008C457.282 49.1446 456.863 47.072 456.863 44.883C456.863 42.7405 457.282 40.6912 458.121 38.7351C458.959 36.7323 460.124 34.9858 461.614 33.4954C463.104 32.005 464.804 30.8639 466.714 30.0721C468.67 29.2338 470.743 28.8146 472.932 28.8146C475.121 28.8146 477.193 29.2338 479.149 30.0721C481.106 30.8639 482.829 32.005 484.319 33.4954C485.81 34.9858 486.951 36.7091 487.743 38.6652C488.581 40.6214 489 42.694 489 44.883C489 47.072 488.581 49.1446 487.743 51.1008C486.951 53.0104 485.81 54.7103 484.319 56.2007C482.829 57.6912 481.106 58.8555 479.149 59.6939C477.193 60.5322 475.121 60.9514 472.932 60.9514ZM472.932 31.3995C471.115 31.3995 469.392 31.7721 467.762 32.5173C466.132 33.2159 464.688 34.1707 463.43 35.3817C462.219 36.6392 461.241 38.083 460.496 39.7132C459.798 41.3433 459.448 43.0666 459.448 44.883C459.448 46.6994 459.798 48.4227 460.496 50.0528C461.241 51.683 462.219 53.1268 463.43 54.3843C464.688 55.6418 466.132 56.6432 467.762 57.3884C469.392 58.087 471.115 58.4364 472.932 58.4364C474.748 58.4364 476.471 58.087 478.102 57.3884C479.732 56.6432 481.175 55.6418 482.433 54.3843C483.644 53.1268 484.599 51.683 485.297 50.0528C486.043 48.4227 486.415 46.6994 486.415 44.883C486.415 43.0666 486.043 41.3433 485.297 39.7132C484.599 38.083 483.644 36.6392 482.433 35.3817C481.175 34.1707 479.732 33.2159 478.102 32.5173C476.471 31.7721 474.748 31.3995 472.932 31.3995ZM475.237 52.498L470.696 47.7474V52.498H468.181V35.6611H472.862C474.445 35.6611 475.773 36.22 476.844 37.3378C477.962 38.409 478.521 39.7597 478.521 41.3899C478.521 43.02 478.055 44.3474 477.123 45.372C476.192 46.3501 474.934 46.909 473.351 47.0487L478.591 52.498H475.237ZM470.696 38.246V44.6734H472.932C473.817 44.6734 474.562 44.3707 475.167 43.7652C475.819 43.1131 476.145 42.3214 476.145 41.3899C476.145 40.5049 475.819 39.7597 475.167 39.1543C474.562 38.5488 473.817 38.246 472.932 38.246H470.696Z" fill="#D5D5D5"></path>
<path d="M396.755 105.167L436.111 47.4136H396.755V36.9342H449.385V46.3656L410.145 103.769H449.385V114.365H396.755V105.167Z" fill="#D5D5D5"></path>
<path d="M348.542 114.598C343.341 114.598 338.373 113.589 333.638 111.571C328.98 109.553 324.827 106.758 321.179 103.187C317.53 99.6165 314.697 95.5024 312.679 90.8449C310.738 86.1097 309.768 81.1029 309.768 75.8244C309.768 70.5459 310.777 65.5002 312.795 60.6875C314.813 55.7971 317.608 51.6053 321.179 48.1122C324.749 44.5414 328.864 41.7469 333.521 39.7287C338.256 37.7104 343.263 36.7013 348.542 36.7013C353.82 36.7013 358.827 37.7104 363.562 39.7287C368.297 41.7469 372.45 44.5414 376.021 48.1122C379.592 51.683 382.386 55.8747 384.404 60.6875C386.423 65.5002 387.432 70.5459 387.432 75.8244C387.432 81.3358 386.345 86.5367 384.172 91.4271C381.998 96.3174 378.971 100.548 375.089 104.119H387.432V114.598H348.542ZM348.542 47.2971C344.738 47.2971 341.09 48.0346 337.596 49.5094C334.181 50.9067 331.154 52.925 328.514 55.5642C325.953 58.1258 323.934 61.192 322.46 64.7628C320.985 68.2559 320.247 71.9431 320.247 75.8244C320.247 79.628 320.946 83.2764 322.343 86.7695C323.818 90.1851 325.875 93.2124 328.514 95.8517C331.154 98.491 334.181 100.548 337.596 102.023C341.09 103.42 344.738 104.119 348.542 104.119C352.345 104.119 355.955 103.42 359.37 102.023C362.863 100.548 365.93 98.491 368.569 95.8517C371.208 93.2124 373.226 90.1851 374.624 86.7695C376.099 83.2764 376.836 79.628 376.836 75.8244C376.836 71.9431 376.099 68.2559 374.624 64.7628C373.149 61.192 371.131 58.1258 368.569 55.5642C365.93 52.925 362.863 50.9067 359.37 49.5094C355.955 48.0346 352.345 47.2971 348.542 47.2971Z" fill="#D5D5D5"></path>
<path d="M272.222 115.18C268.574 115.18 265.081 114.482 261.743 113.084C258.482 111.61 255.61 109.591 253.126 107.03C250.642 104.468 248.702 101.518 247.304 98.1805C245.907 94.8426 245.209 91.3494 245.209 87.701V37.167H255.106V87.701C255.106 90.0298 255.533 92.2421 256.387 94.338C257.24 96.4339 258.482 98.2969 260.113 99.927C261.665 101.557 263.489 102.838 265.585 103.769C267.681 104.623 269.893 105.05 272.222 105.05C274.551 105.05 276.763 104.623 278.859 103.769C280.955 102.838 282.818 101.557 284.448 99.927C286.078 98.2969 287.32 96.4339 288.174 94.338C289.028 92.2421 289.455 90.0298 289.455 87.701V37.167H299.236V87.701C299.236 91.3494 298.537 94.8426 297.14 98.1805C295.743 101.518 293.802 104.468 291.318 107.03C288.834 109.591 285.923 111.61 282.585 113.084C279.325 114.482 275.87 115.18 272.222 115.18Z" fill="#D5D5D5"></path>
<path d="M203.705 114.365V36.9342H213.718V103.886H237.006V114.365H203.705Z" fill="#D5D5D5"></path>
<path d="M14.6172 94.5472C0.0903847 124.493 43.043 139.238 101.73 68.2283C84.8709 112.76 39.7716 144.634 10.9717 135.924C-15.6867 127.862 14.6172 94.5472 14.6172 94.5472Z" fill="#D5D5D5"></path>
<path d="M25.9654 112.971C30.6202 113.142 36.2266 112.124 42.6263 109.642C40.0152 106.7 37.6828 103.478 35.6918 99.9878C28.1346 86.7564 26.2366 71.4082 30.3466 56.7657C34.459 42.1231 44.0875 29.94 57.4568 22.4622C66.2091 17.5705 75.8752 15.0738 85.6593 15.0738C90.8262 15.0738 96.0259 15.7719 101.14 17.1755C108.823 19.2872 115.825 22.882 121.848 27.6892C126.736 24.6881 131.68 22.2684 136.561 20.4846C127.904 12.1001 117.211 5.95386 105.217 2.65716C86.4953 -2.48786 66.8769 -0.110371 49.965 9.34743C33.0506 18.8052 20.8738 34.213 15.6742 52.7336C10.472 71.2542 12.8747 90.6716 22.4304 107.406C23.5276 109.326 24.7126 111.177 25.9654 112.971Z" fill="#D5D5D5"></path>
<path d="M148.08 34.9657C143.561 34.931 138.188 35.9893 132.107 38.3568C133.435 40.158 134.678 42.0336 135.805 44.0037C143.362 57.2352 145.258 72.5833 141.148 87.2259C137.035 101.868 127.407 114.052 114.037 121.529C100.666 129.01 85.1496 130.885 70.3567 126.818C64.5144 125.211 59.0687 122.744 54.1402 119.544C49.1339 122.717 44.0574 125.288 39.0385 127.189C46.8894 133.7 56.1136 138.544 66.2769 141.337C72.7469 143.116 79.3198 143.995 85.8551 143.995C98.2302 143.995 110.46 140.84 121.527 134.652C138.439 125.194 150.616 109.784 155.815 91.2654C161.017 72.7448 158.617 53.3274 149.059 36.593C148.745 36.0415 148.406 35.5098 148.077 34.9682L148.08 34.9657Z" fill="#D5D5D5"></path>
<path d="M160.211 53.4143C174.738 23.4683 131.785 8.72389 73.0984 79.7332C89.9601 35.2042 135.057 3.32793 163.857 12.038C190.515 20.0996 160.211 53.4143 160.211 53.4143Z" fill="#D5D5D5"></path>
</svg>