<svg width="286" height="234" viewBox="0 0 286 234" fill="none" xmlns="http://www.w3.org/2000/svg">
<path d="M23.9121 153.644C0.147859 202.308 70.4136 226.269 166.419 110.875C138.839 183.241 65.062 235.038 17.9484 220.883C-25.6617 207.783 23.9121 153.644 23.9121 153.644Z" fill="#D5D5D5"></path>
<path d="M42.4765 183.584C50.0913 183.863 59.2626 182.207 69.7319 178.174C65.4604 173.394 61.6448 168.158 58.3878 162.486C46.0252 140.984 42.9201 116.042 49.6436 92.2473C56.3712 68.4523 72.1222 48.6541 93.993 36.5023C108.311 28.5531 124.123 24.4958 140.129 24.4958C148.582 24.4958 157.088 25.6302 165.454 27.9112C178.022 31.3428 189.477 37.1845 199.33 44.9964C207.327 40.1195 215.414 36.1874 223.398 33.2887C209.237 19.6633 191.744 9.67535 172.124 4.31804C141.497 -4.04292 109.403 -0.179359 81.7372 15.1901C54.067 30.5596 34.1472 55.598 25.6412 85.695C17.1311 115.792 21.0617 147.346 36.6936 174.541C38.4885 177.661 40.4271 180.669 42.4765 183.584Z" fill="#D5D5D5"></path>
<path d="M242.242 56.8213C234.849 56.7648 226.06 58.4846 216.112 62.332C218.285 65.2589 220.318 68.307 222.162 71.5084C234.525 93.0103 237.626 117.952 230.902 141.747C224.175 165.542 208.423 185.34 186.553 197.492C164.678 209.648 139.295 212.696 115.096 206.087C105.538 203.475 96.6298 199.466 88.5674 194.266C80.3777 199.422 72.073 203.6 63.8627 206.689C76.7059 217.27 91.7957 225.142 108.422 229.68C119.006 232.571 129.758 234 140.449 234C160.694 234 180.7 228.873 198.804 218.816C226.47 203.447 246.39 178.404 254.896 148.311C263.406 118.214 259.48 86.6599 243.844 59.4656C243.33 58.5694 242.776 57.7054 242.238 56.8253L242.242 56.8213Z" fill="#D5D5D5"></path>
<path d="M262.088 86.8012C285.852 38.1373 215.586 14.1768 119.581 129.571C147.165 57.2088 220.938 5.40807 268.052 19.5623C311.662 32.6629 262.088 86.8012 262.088 86.8012Z" fill="#D5D5D5"></path>
</svg>