<svg width="299" height="91" viewBox="0 0 299 91" fill="none" xmlns="http://www.w3.org/2000/svg">
<path d="M281.897 33.6493C279.605 33.6493 277.435 33.2104 275.387 32.3325C273.387 31.4547 271.607 30.2356 270.047 28.675C268.486 27.1145 267.267 25.3345 266.389 23.335C265.511 21.2868 265.073 19.1167 265.073 16.8246C265.073 14.5813 265.511 12.4356 266.389 10.3874C267.267 8.2904 268.486 6.46163 270.047 4.90108C271.607 3.34054 273.387 2.14575 275.387 1.31671C277.435 0.438904 279.605 0 281.897 0C284.189 0 286.359 0.438904 288.408 1.31671C290.456 2.14575 292.26 3.34054 293.821 4.90108C295.381 6.46163 296.576 8.26601 297.405 10.3142C298.283 12.3624 298.722 14.5326 298.722 16.8246C298.722 19.1167 298.283 21.2868 297.405 23.335C296.576 25.3345 295.381 27.1145 293.821 28.675C292.26 30.2356 290.456 31.4547 288.408 32.3325C286.359 33.2104 284.189 33.6493 281.897 33.6493ZM281.897 2.70657C279.995 2.70657 278.191 3.0967 276.484 3.87698C274.777 4.60848 273.265 5.60821 271.949 6.87615C270.681 8.19286 269.657 9.70464 268.876 11.4115C268.145 13.1183 267.779 14.9227 267.779 16.8246C267.779 18.7265 268.145 20.5309 268.876 22.2378C269.657 23.9446 270.681 25.4564 271.949 26.7731C273.265 28.0898 274.777 29.1383 276.484 29.9186C278.191 30.6501 279.995 31.0158 281.897 31.0158C283.799 31.0158 285.603 30.6501 287.31 29.9186C289.017 29.1383 290.529 28.0898 291.846 26.7731C293.114 25.4564 294.113 23.9446 294.845 22.2378C295.625 20.5309 296.015 18.7265 296.015 16.8246C296.015 14.9227 295.625 13.1183 294.845 11.4115C294.113 9.70464 293.114 8.19286 291.846 6.87615C290.529 5.60821 289.017 4.60848 287.31 3.87698C285.603 3.0967 283.799 2.70657 281.897 2.70657ZM284.311 24.798L279.556 19.8238V24.798H276.923V7.16875H281.824C283.482 7.16875 284.872 7.75396 285.994 8.92437C287.164 10.046 287.749 11.4603 287.749 13.1671C287.749 14.8739 287.262 16.2638 286.286 17.3367C285.311 18.3608 283.994 18.946 282.336 19.0923L287.822 24.798H284.311ZM279.556 9.87532V16.6052H281.897C282.824 16.6052 283.604 16.2882 284.238 15.6542C284.921 14.9715 285.262 14.1424 285.262 13.1671C285.262 12.2405 284.921 11.4603 284.238 10.8263C283.604 10.1923 282.824 9.87532 281.897 9.87532H279.556Z" fill="#D5D5D5"></path>
<path d="M202.136 79.9454L243.344 19.4743H202.136V8.50172H257.242V18.377L216.156 78.4824H257.242V89.5769H202.136V79.9454Z" fill="#D5D5D5"></path>
<path d="M151.653 89.8207C146.207 89.8207 141.006 88.7641 136.048 86.6509C131.171 84.5377 126.823 81.6116 123.002 77.8728C119.182 74.134 116.216 69.8263 114.102 64.9496C112.071 59.9916 111.055 54.7491 111.055 49.2222C111.055 43.6953 112.111 38.4122 114.224 33.3729C116.338 28.2524 119.264 23.8633 123.002 20.2058C126.741 16.467 131.049 13.541 135.926 11.4277C140.884 9.3145 146.126 8.25788 151.653 8.25788C157.18 8.25788 162.422 9.3145 167.38 11.4277C172.338 13.541 176.687 16.467 180.426 20.2058C184.164 23.9446 187.09 28.3336 189.204 33.3729C191.317 38.4122 192.374 43.6953 192.374 49.2222C192.374 54.993 191.236 60.4386 188.96 65.5591C186.684 70.6797 183.514 75.1094 179.45 78.8482H192.374V89.8207H151.653ZM151.653 19.3524C147.67 19.3524 143.85 20.1245 140.193 21.6688C136.617 23.1318 133.447 25.2451 130.683 28.0085C128.001 30.6907 125.888 33.9012 124.344 37.64C122.799 41.2975 122.027 45.1583 122.027 49.2222C122.027 53.2048 122.759 57.0249 124.222 60.6824C125.766 64.2587 127.92 67.4286 130.683 70.192C133.447 72.9555 136.617 75.1094 140.193 76.6536C143.85 78.1167 147.67 78.8482 151.653 78.8482C155.636 78.8482 159.415 78.1167 162.991 76.6536C166.649 75.1094 169.859 72.9555 172.623 70.192C175.386 67.4286 177.5 64.2587 178.963 60.6824C180.507 57.0249 181.279 53.2048 181.279 49.2222C181.279 45.1583 180.507 41.2975 178.963 37.64C177.418 33.9012 175.305 30.6907 172.623 28.0085C169.859 25.2451 166.649 23.1318 162.991 21.6688C159.415 20.1245 155.636 19.3524 151.653 19.3524Z" fill="#D5D5D5"></path>
<path d="M71.7418 90.4303C67.9217 90.4303 64.2642 89.6988 60.7692 88.2358C57.3555 86.6915 54.3483 84.5783 51.7474 81.8961C49.1465 79.2139 47.1145 76.1253 45.6515 72.6304C44.1885 69.1354 43.457 65.4779 43.457 61.6578V8.74555H53.8199V61.6578C53.8199 64.0961 54.267 66.4126 55.161 68.6071C56.0551 70.8016 57.3555 72.7523 59.0624 74.4591C60.6879 76.166 62.598 77.5071 64.7925 78.4824C66.987 79.3765 69.3035 79.8235 71.7418 79.8235C74.1802 79.8235 76.4966 79.3765 78.6911 78.4824C80.8857 77.5071 82.8363 76.166 84.5432 74.4591C86.25 72.7523 87.5505 70.8016 88.4445 68.6071C89.3386 66.4126 89.7856 64.0961 89.7856 61.6578V8.74555H100.027V61.6578C100.027 65.4779 99.2952 69.1354 97.8322 72.6304C96.3692 76.1253 94.3372 79.2139 91.7363 81.8961C89.1354 84.5783 86.0875 86.6915 82.5925 88.2358C79.1788 89.6988 75.5619 90.4303 71.7418 90.4303Z" fill="#D5D5D5"></path>
<path d="M0 89.5769V8.50172H10.4849V78.6043H34.8684V89.5769H0Z" fill="#D5D5D5"></path>
</svg>